<svg width="49" height="43" viewBox="0 0 49 43" fill="none" xmlns="http://www.w3.org/2000/svg">
<path d="M45.0906 21.6268C45.0906 20.1005 44.9473 18.9868 44.6373 17.8318H24.4788V24.7205H36.3114C36.0729 26.4324 34.7847 29.0106 31.9219 30.743L31.8817 30.9736L38.2555 35.2426L38.6971 35.2807C42.7526 32.0425 45.0906 27.278 45.0906 21.6268Z" fill="#4285F4"/>
<path d="M24.4773 39.777C30.2743 39.777 35.1409 38.1269 38.6956 35.2807L31.9204 30.743C30.1074 31.8361 27.674 32.5993 24.4773 32.5993C18.7996 32.5993 13.9807 29.3612 12.2628 24.8855L12.0111 24.904L5.38355 29.3384L5.29688 29.5468C8.82756 35.6106 16.0799 39.777 24.4773 39.777Z" fill="#34A853"/>
<path d="M12.2642 24.8857C11.8109 23.7307 11.5486 22.4931 11.5486 21.2144C11.5486 19.9356 11.8109 18.6981 12.2404 17.5431L12.2283 17.2972L5.51776 12.7915L5.2982 12.8818C3.84304 15.3981 3.00806 18.2238 3.00806 21.2144C3.00806 24.2051 3.84304 27.0306 5.2982 29.5469L12.2642 24.8857Z" fill="#FBBC05"/>
<path d="M24.4774 9.82936C28.5091 9.82936 31.2287 11.335 32.7794 12.5932L38.8389 7.47814C35.1174 4.4875 30.2744 2.65186 24.4774 2.65186C16.0799 2.65186 8.82758 6.8181 5.29688 12.8818L12.239 17.5432C13.9807 13.0675 18.7997 9.82936 24.4774 9.82936Z" fill="#EB4335"/>
</svg>
