<svg width="21" height="19" viewBox="0 0 21 19" fill="none" xmlns="http://www.w3.org/2000/svg">
<g clip-path="url(#clip0_2134_1429)">
<path d="M2.05376 3.61401H18.3087C19.2644 3.61401 20.042 4.29999 20.042 5.14317V14.0049C20.042 14.8481 19.2644 15.534 18.3087 15.534H2.05376C1.09799 15.534 0.320415 14.8481 0.320415 14.0049V5.14317C0.320415 4.29999 1.09799 3.61401 2.05376 3.61401ZM2.27998 4.63345L2.51132 4.80339L9.49349 9.93256C9.89201 10.2253 10.4705 10.2253 10.8689 9.93256L17.8511 4.80339L18.0824 4.63345H2.27998ZM18.8864 5.36942L13.1975 9.54854L18.8864 12.8887V5.36942ZM2.05376 14.5146H18.3087C18.5878 14.5146 18.8213 14.339 18.8748 14.1064L12.271 10.2291L11.6083 10.716C11.1949 11.0197 10.688 11.1715 10.1812 11.1715C9.67434 11.1715 9.16751 11.0197 8.75401 10.716L8.09133 10.2291L1.48753 14.1064C1.54107 14.339 1.77457 14.5146 2.05376 14.5146ZM1.47598 12.8887L7.16488 9.54857L1.47598 5.36942V12.8887Z" fill="#000842"/>
</g>
<defs>
<clipPath id="clip0_2134_1429">
<rect width="19.7216" height="17.3984" fill="white" transform="matrix(-1 0 0 1 20.042 0.874756)"/>
</clipPath>
</defs>
</svg>
